<svg width="225" height="55" viewBox="0 0 225 55" fill="none" xmlns="http://www.w3.org/2000/svg">
<path d="M0 15.8864L24 0.977274V51.2955H0V15.8864Z" fill="#3F3F3F"/>
<path d="M24 0.977274L42 10.7614V38.25L24 51.2955V0.977274Z" fill="#6B6B6B"/>
<rect x="29" y="12.1591" width="3" height="6.52273" rx="1.5" fill="#DDDEE2"/>
<rect x="29" y="22.4091" width="3" height="6.52273" rx="1.5" fill="#DDDEE2"/>
<rect x="35" y="25.2045" width="3" height="6.52273" rx="1.5" fill="#DDDEE2"/>
<rect x="35" y="14.9545" width="3" height="6.52273" rx="1.5" fill="#DDDEE2"/>
<path d="M7.50367 36.5859C6.81074 36.2678 6.0176 36.1847 5.27472 36.3964C4.53205 36.6077 3.90395 37.0905 3.52348 37.7473C3.14301 38.4042 3.03674 39.1892 3.22295 39.9386C3.40894 40.6883 3.87563 41.335 4.49633 41.7778C4.49633 41.7778 4.49633 41.7778 4.49633 41.7778C5.20888 42.2854 5.92397 42.7886 6.64159 43.2874C11.7531 46.8406 16.993 50.172 22.3614 53.2815C22.406 53.3074 22.4505 53.3332 22.4951 53.3589L24.9387 54.777L27.095 52.9417C34.2606 46.8229 40.9777 40.1781 47.2463 33.0072C47.8257 32.3443 48.4013 31.677 48.9731 31.0051C49.2138 30.7216 49.3733 30.3661 49.3923 29.9883C49.4116 29.6108 49.2917 29.2454 49.0532 28.9657C48.8148 28.686 48.473 28.5099 48.0972 28.4691C47.7212 28.4281 47.3449 28.5294 47.0269 28.7221C47.0269 28.7221 47.0269 28.7221 47.0269 28.7221C46.273 29.1804 45.523 29.6432 44.7768 30.1105C36.7043 35.1655 29.0804 40.7466 21.905 46.8538L26.5049 46.4365C26.4603 46.4107 26.4158 46.3848 26.3712 46.359C21.0028 43.2494 15.5059 40.3616 9.88057 37.6956C9.0908 37.3213 8.2985 36.9514 7.50367 36.5859Z" fill="#8F8F8F"/>
<path d="M64.1739 22.9964C64.1739 21.0764 63.1605 20.1164 61.1339 20.1164H57.9019V37.6204H61.1339C63.1605 37.6204 64.1739 36.639 64.1739 34.6764V22.9964ZM55.6299 18.1324H61.2619C62.9685 18.1324 64.2592 18.5697 65.1339 19.4444C66.0085 20.319 66.4459 21.4924 66.4459 22.9644V34.7404C66.4459 36.255 66.0192 37.4497 65.1659 38.3244C64.3125 39.199 63.0325 39.6364 61.3259 39.6364H55.6299V18.1324ZM70.1849 34.9964V26.1004C70.1849 24.5857 70.6115 23.3804 71.4649 22.4844C72.3395 21.567 73.6515 21.1084 75.4009 21.1084C77.1502 21.1084 78.4409 21.567 79.2729 22.4844C80.1262 23.3804 80.5529 24.5857 80.5529 26.1004V31.6684H72.4249V34.9004C72.4249 35.8604 72.7235 36.575 73.3209 37.0444C73.9182 37.5137 74.8462 37.7484 76.1049 37.7484C77.3635 37.7484 78.6649 37.5564 80.0089 37.1724V39.2844C78.9422 39.6257 77.6729 39.7964 76.2009 39.7964C72.1902 39.7964 70.1849 38.1964 70.1849 34.9964ZM72.4249 29.7804H78.3769V26.1004C78.3769 24.095 77.3849 23.0924 75.4009 23.0924C73.4169 23.0924 72.4249 24.095 72.4249 26.1004V29.7804ZM85.1144 20.3404C85.1144 18.9537 85.4877 17.887 86.2344 17.1404C86.981 16.3724 88.0797 15.9884 89.5304 15.9884C90.0424 15.9884 90.5224 16.0204 90.9704 16.0844V18.0364C90.6504 17.951 90.2237 17.9084 89.6904 17.9084C88.1544 17.9084 87.3864 18.7084 87.3864 20.3084V21.4284H90.7784V23.3804H87.3864V39.6364H85.1144V23.3804H83.2904V21.4284H85.1144V20.3404ZM92.8724 34.9964V26.1004C92.8724 24.5857 93.299 23.3804 94.1524 22.4844C95.027 21.567 96.339 21.1084 98.0884 21.1084C99.8377 21.1084 101.128 21.567 101.96 22.4844C102.814 23.3804 103.24 24.5857 103.24 26.1004V31.6684H95.1124V34.9004C95.1124 35.8604 95.411 36.575 96.0084 37.0444C96.6057 37.5137 97.5337 37.7484 98.7924 37.7484C100.051 37.7484 101.352 37.5564 102.696 37.1724V39.2844C101.63 39.6257 100.36 39.7964 98.8884 39.7964C94.8777 39.7964 92.8724 38.1964 92.8724 34.9964ZM95.1124 29.7804H101.064V26.1004C101.064 24.095 100.072 23.0924 98.0884 23.0924C96.1044 23.0924 95.1124 24.095 95.1124 26.1004V29.7804ZM106.81 25.8764C106.81 22.8044 108.602 21.2684 112.186 21.2684C113.509 21.2684 114.639 21.4177 115.578 21.7164V23.7964C114.554 23.519 113.445 23.3804 112.25 23.3804C111.055 23.3804 110.223 23.5937 109.754 24.0204C109.306 24.4257 109.082 25.0657 109.082 25.9404V35.1564C109.082 36.0524 109.306 36.703 109.754 37.1084C110.223 37.5137 111.077 37.7164 112.314 37.7164C113.551 37.7164 114.661 37.5457 115.642 37.2044V39.3484C114.49 39.647 113.338 39.7964 112.186 39.7964C108.602 39.7964 106.81 38.2817 106.81 35.2524V25.8764ZM121.214 18.1324V21.4284H125.278V23.4444H121.214V35.6044C121.214 36.351 121.395 36.895 121.758 37.2364C122.12 37.5564 122.675 37.7164 123.422 37.7164C124.168 37.7164 124.894 37.599 125.598 37.3644V39.4444C124.744 39.6577 123.944 39.7644 123.198 39.7644C120.339 39.7644 118.91 38.4097 118.91 35.7004V23.4444H116.926V21.4284H119.006L119.646 18.1324H121.214ZM143.422 18.1324V39.6364H141.246V28.3084C141.246 26.111 141.31 23.9884 141.438 21.9404L137.054 33.9084H134.654L130.206 21.9404C130.355 23.9244 130.43 26.0364 130.43 28.2764V39.6364H128.286V18.1324H130.974L135.838 31.6044L140.702 18.1324H143.422ZM148.873 34.4524V35.4124C148.873 36.2657 149.075 36.895 149.481 37.3004C149.886 37.7057 150.654 37.9084 151.785 37.9084C152.915 37.9084 153.982 37.4924 154.985 36.6604V30.6764L151.337 31.7004C150.377 31.9777 149.726 32.319 149.385 32.7244C149.043 33.1297 148.873 33.7057 148.873 34.4524ZM151.753 21.2684C155.379 21.2684 157.193 22.815 157.193 25.9084V39.6364H155.017V38.3244C153.929 39.2844 152.627 39.7644 151.113 39.7644C148.147 39.7644 146.665 38.303 146.665 35.3804V34.3564C146.665 32.1377 147.955 30.6657 150.537 29.9404L155.017 28.6924V25.9084C154.995 25.0337 154.75 24.3937 154.281 23.9884C153.811 23.583 152.862 23.3804 151.433 23.3804C150.025 23.3804 148.723 23.5937 147.529 24.0204V21.8764C148.745 21.471 150.153 21.2684 151.753 21.2684ZM163.618 22.2604C165.048 21.663 166.349 21.3644 167.522 21.3644C168.717 21.3644 169.698 21.7377 170.466 22.4844C171.234 23.2097 171.618 24.2444 171.618 25.5884V39.6364H169.346V25.8124C169.346 24.255 168.557 23.4764 166.978 23.4764C165.976 23.4764 164.888 23.7537 163.714 24.3084V39.6364H161.442V21.4284H163.618V22.2604ZM176.904 34.4524V35.4124C176.904 36.2657 177.107 36.895 177.512 37.3004C177.917 37.7057 178.685 37.9084 179.816 37.9084C180.947 37.9084 182.013 37.4924 183.016 36.6604V30.6764L179.368 31.7004C178.408 31.9777 177.757 32.319 177.416 32.7244C177.075 33.1297 176.904 33.7057 176.904 34.4524ZM179.784 21.2684C183.411 21.2684 185.224 22.815 185.224 25.9084V39.6364H183.048V38.3244C181.96 39.2844 180.659 39.7644 179.144 39.7644C176.179 39.7644 174.696 38.303 174.696 35.3804V34.3564C174.696 32.1377 175.987 30.6657 178.568 29.9404L183.048 28.6924V25.9084C183.027 25.0337 182.781 24.3937 182.312 23.9884C181.843 23.583 180.893 23.3804 179.464 23.3804C178.056 23.3804 176.755 23.5937 175.56 24.0204V21.8764C176.776 21.471 178.184 21.2684 179.784 21.2684ZM200.898 22.2604H199.81C199.255 22.2604 198.775 22.399 198.37 22.6764C199.031 23.4657 199.362 24.5004 199.362 25.7804V28.3404C199.362 29.791 198.924 30.9324 198.05 31.7644C197.175 32.575 195.852 32.991 194.082 33.0124C192.866 33.0124 192.258 33.5777 192.258 34.7084C192.258 35.2204 192.418 35.5937 192.738 35.8284C193.058 36.063 193.591 36.1804 194.338 36.1804H196.226C199.148 36.1804 200.61 37.4177 200.61 39.8924V40.3084C200.61 43.039 198.679 44.4044 194.818 44.4044H193.506C191.351 44.4044 189.687 44.0737 188.514 43.4124V41.2364C189.922 42.0257 191.586 42.4204 193.506 42.4204H194.658C197.175 42.4204 198.434 41.7164 198.434 40.3084V39.9884C198.434 39.3697 198.274 38.911 197.954 38.6124C197.655 38.2924 197.036 38.1324 196.098 38.1324H194.178C192.898 38.1324 191.916 37.8977 191.234 37.4284C190.551 36.959 190.21 36.2764 190.21 35.3804V34.8684C190.21 34.3137 190.359 33.855 190.658 33.4924C190.978 33.1297 191.372 32.8844 191.842 32.7564C189.73 32.159 188.674 30.687 188.674 28.3404V25.7804C188.674 24.3297 189.111 23.1884 189.986 22.3564C190.882 21.5244 192.151 21.1084 193.794 21.1084C195.436 21.1084 196.674 21.3964 197.506 21.9724C197.932 20.6924 198.903 20.0524 200.418 20.0524H200.898V22.2604ZM197.09 28.3404V25.7804C197.09 24.863 196.844 24.1804 196.354 23.7324C195.884 23.2844 195.106 23.0604 194.018 23.0604C192.93 23.0604 192.14 23.2844 191.65 23.7324C191.18 24.1804 190.946 24.863 190.946 25.7804V28.3404C190.946 29.2577 191.18 29.9404 191.65 30.3884C192.14 30.8364 192.93 31.0604 194.018 31.0604C195.106 31.0604 195.884 30.8364 196.354 30.3884C196.844 29.9404 197.09 29.2577 197.09 28.3404ZM203.466 34.9964V26.1004C203.466 24.5857 203.893 23.3804 204.746 22.4844C205.621 21.567 206.933 21.1084 208.682 21.1084C210.431 21.1084 211.722 21.567 212.554 22.4844C213.407 23.3804 213.834 24.5857 213.834 26.1004V31.6684H205.706V34.9004C205.706 35.8604 206.005 36.575 206.602 37.0444C207.199 37.5137 208.127 37.7484 209.386 37.7484C210.645 37.7484 211.946 37.5564 213.29 37.1724V39.2844C212.223 39.6257 210.954 39.7964 209.482 39.7964C205.471 39.7964 203.466 38.1964 203.466 34.9964ZM205.706 29.7804H211.658V26.1004C211.658 24.095 210.666 23.0924 208.682 23.0924C206.698 23.0924 205.706 24.095 205.706 26.1004V29.7804ZM223.612 21.3324H224.412V23.5084H223.324C222.556 23.5084 221.862 23.711 221.244 24.1164C221.052 24.2444 220.636 24.5324 219.996 24.9804V39.6364H217.724V21.4284H219.9V22.8044C219.964 22.7617 220.124 22.6444 220.38 22.4524C220.657 22.2604 220.817 22.1537 220.86 22.1324C220.924 22.0897 221.062 22.0044 221.276 21.8764C221.51 21.7484 221.681 21.6737 221.788 21.6524C221.916 21.6097 222.086 21.5564 222.3 21.4924C222.62 21.3857 223.057 21.3324 223.612 21.3324Z" fill="#3F3F3F"/>
</svg>
