<svg width="50" height="58" viewBox="0 0 50 58" fill="none" xmlns="http://www.w3.org/2000/svg">
<path d="M0 16L24 0V54H0V16Z" fill="#3F3F3F"/>
<path d="M24 0L42 10.5V40L24 54V0Z" fill="#6B6B6B"/>
<rect x="29" y="12" width="3" height="7" rx="1.5" fill="#DDDEE2"/>
<rect x="29" y="23" width="3" height="7" rx="1.5" fill="#DDDEE2"/>
<rect x="35" y="26" width="3" height="7" rx="1.5" fill="#DDDEE2"/>
<rect x="35" y="15" width="3" height="7" rx="1.5" fill="#DDDEE2"/>
<path d="M7.5838 38.4521C6.90127 38.1106 6.1105 38.0022 5.36074 38.1905C4.61119 38.3784 3.96764 38.8418 3.56643 39.4872C3.16521 40.1327 3.03445 40.9149 3.19767 41.6702C3.36067 42.4258 3.80789 43.0869 4.4162 43.5479C4.4162 43.5479 4.4162 43.5479 4.4162 43.5479C5.13205 44.0895 5.85057 44.6268 6.57175 45.1599C11.7086 48.9566 16.9808 52.5357 22.3883 55.8971L24.9632 57.4977L27.2001 55.4512C27.2001 55.4512 27.2001 55.4512 27.2001 55.4512C34.3739 48.888 41.0759 41.809 47.3061 34.2144C47.8789 33.5162 48.4477 32.8136 49.0125 32.1067C49.2446 31.8154 49.3923 31.4543 49.3984 31.0756C49.4046 30.6972 49.2718 30.3356 49.0232 30.0638C48.7747 29.7921 48.4262 29.6278 48.0487 29.6004C47.671 29.5729 47.2982 29.688 46.9875 29.8933C46.9875 29.8933 46.9875 29.8933 46.9875 29.8933C46.2332 30.3932 45.483 30.8974 44.7367 31.406C36.6193 36.9379 28.9738 42.9855 21.7999 49.5488C21.7999 49.5488 21.7999 49.5488 21.7999 49.5488L26.6117 49.1029C21.2042 45.7414 15.6614 42.5977 9.98333 39.6717C9.18615 39.2609 8.38631 38.8544 7.5838 38.4521Z" fill="#8F8F8F"/>
</svg>
