<svg width="18" height="22" viewBox="0 0 18 22" fill="none" xmlns="http://www.w3.org/2000/svg">
<path d="M6.29125 17.6471C5.63632 17.6471 3.59584 17.6471 2.08407 17.6471C1.27859 17.6471 0.755692 16.7727 1.11591 16.0296L2.04135 14.1204C2.34226 13.4997 2.49891 12.8159 2.49891 12.1219C2.49891 11.2616 2.49891 9.9838 2.49891 8.70588C2.49891 6.47059 3.58244 2 9.00007 2C14.4177 2 15.5012 6.47059 15.5012 8.70588C15.5012 9.9838 15.5012 11.2616 15.5012 12.1219C15.5012 12.8159 15.6579 13.4997 15.9588 14.1204L16.8842 16.0296C17.2444 16.7727 16.7205 17.6471 15.9151 17.6471H11.7089M6.29125 17.6471C6.29125 19.8824 7.37478 21 9.00007 21C10.6254 21 11.7089 19.8824 11.7089 17.6471M6.29125 17.6471C7.98383 17.6471 11.7089 17.6471 11.7089 17.6471" stroke="#3F3F3F" stroke-width="2" stroke-linejoin="round"/>
<path d="M9 2V1" stroke="#3F3F3F" stroke-width="2" stroke-linecap="round" stroke-linejoin="round"/>
</svg>
