<svg width="34" height="34" viewBox="0 0 34 34" fill="none" xmlns="http://www.w3.org/2000/svg">
<g clip-path="url(#clip0_75_70)">
<path fill-rule="evenodd" clip-rule="evenodd" d="M17 17C13.2319 17 10.1676 13.9502 10.1676 10.2C10.1676 6.44977 13.2319 3.39997 17 3.39997C20.7681 3.39997 23.8324 6.44977 23.8324 10.2C23.8324 13.9502 20.7681 17 17 17ZM23.419 18.144C26.1298 15.9731 27.7098 12.4626 27.129 8.61888C26.4543 4.15978 22.7273 0.591561 18.2281 0.0713607C12.0192 -0.647739 6.75145 4.16327 6.75145 10.2C6.75145 13.413 8.24773 16.2757 10.581 18.144C4.84862 20.2877 0.663787 25.3215 0.00787791 32.1147C-0.0877743 33.1194 0.699664 34 1.71427 34C2.58369 34 3.32501 33.3472 3.40187 32.4853C4.08682 24.8982 9.92337 20.4 17 20.4C24.0766 20.4 29.9132 24.8982 30.5981 32.4853C30.675 33.3472 31.4163 34 32.2857 34C33.3003 34 34.0878 33.1194 33.9921 32.1147C33.3362 25.3215 29.1514 20.2877 23.419 18.144Z" fill="#3F3F3F"/>
</g>
<defs>
<clipPath id="clip0_75_70">
<rect width="34" height="34" fill="white"/>
</clipPath>
</defs>
</svg>
